Coordinates
version=1
nRows=10
nColumns=22
inDegrees=yes

Units are S.I. units (second, meters, Newtons, ...)
If the header above contains a line with 'inDegrees', this indicates whether rotational values are in degrees (yes) or radians (no).

endheader
time	pelvis_tilt	pelvis_list	pelvis_rotation	pelvis_tx	pelvis_ty	pelvis_tz	hip_flexion_r	hip_adduction_r	hip_rotation_r	knee_angle_r	ankle_angle_r	subtalar_angle_r	hip_flexion_l	hip_adduction_l	hip_rotation_l	knee_angle_l	ankle_angle_l	subtalar_angle_l	lumbar_extension	lumbar_bending	lumbar_rotation
      0.01000000	     -9.45724255	      0.27235128	    -35.66795379	     -1.01885990	      0.88828302	     -0.46436858	     16.01452498	      2.09857401	     -0.40316467	    -15.74587413	     11.52231975	     -1.68265844	     11.55178571	     -6.08487624	     -1.85427814	    -14.71936783	     15.31598929	     -0.75903998	      0.11128936	      3.34272709	      8.71203590
      0.02000000	     -9.47226400	      0.31704418	    -35.61738075	     -1.01880023	      0.88813457	     -0.46386284	     15.89624337	      2.09194572	     -0.35242623	    -15.39509261	     11.01709448	     -1.65265094	     11.60869995	     -6.07680164	     -1.79066669	    -14.77513757	     15.32497256	     -0.73079806	      0.14608497	      3.30562946	      8.73638095
      0.03000000	     -9.49579863	      0.34748649	    -35.55649744	     -1.01874792	      0.88796695	     -0.46325966	     15.74306046	      2.10317295	     -0.34998268	    -14.98928208	     10.46756429	     -1.55050090	     11.67258583	     -6.09306436	     -1.72674418	    -14.85016697	     15.36945893	     -0.70291303	      0.17484665	      3.29133686	      8.76916845
      0.04000000	     -9.51185329	      0.39299995	    -35.49806273	     -1.01871450	      0.88777929	     -0.46254788	     15.58331657	      2.10013737	     -0.40345436	    -14.58586365	      9.96983569	     -1.43109018	     11.72919463	     -6.09951286	     -1.67317484	    -14.91494503	     15.41702034	     -0.66892786	      0.20574495	      3.26150358	      8.82036070
      0.05000000	     -9.52220801	      0.44815199	    -35.44440733	     -1.01869496	      0.88758154	     -0.46173580	     15.41531011	      2.08973678	     -0.51425481	    -14.18933705	      9.56202474	     -1.32061148	     11.76917279	     -6.10147052	     -1.63254194	    -14.95713412	     15.46187569	     -0.62619706	      0.23831820	      3.22239811	      8.88820860
      0.06000000	     -9.52376213	      0.50285626	    -35.39185528	     -1.01865829	      0.88739425	     -0.46081728	     15.22323301	      2.08029477	     -0.68460034	    -13.79484472	      9.26981816	     -1.22199995	     11.77342356	     -6.10478468	     -1.60988097	    -14.95793941	     15.50849196	     -0.56377949	      0.26907538	      3.18252836	      8.96321643
      0.07000000	     -9.52328253	      0.57704685	    -35.34345271	     -1.01864053	      0.88719796	     -0.45983156	     15.03523770	      2.06168432	     -0.87441962	    -13.41158388	      9.08840720	     -1.18401150	     11.77075927	     -6.09377767	     -1.58576029	    -14.93419137	     15.52764812	     -0.50420806	      0.31162962	      3.12774150	      9.06122511
      0.08000000	     -9.51912343	      0.64795200	    -35.28994118	     -1.01859022	      0.88701877	     -0.45875376	     14.81870269	      2.05227515	     -1.09077089	    -13.01238982	      8.99901736	     -1.18704968	     11.73662070	     -6.08768347	     -1.56986353	    -14.86943586	     15.54684144	     -0.42911866	      0.35897652	      3.07823282	      9.15352209
      0.09000000	     -9.51677101	      0.72721539	    -35.23428169	     -1.01853345	      0.88683218	     -0.45760230	     14.59562726	      2.04682776	     -1.30804294	    -12.60705613	      8.98631320	     -1.23494756	     11.69290969	     -6.07924952	     -1.55837296	    -14.78038363	     15.55903336	     -0.34418450	      0.42093890	      3.02548172	      9.24863074
      0.10000000	     -9.51932152	      0.81584272	    -35.17493637	     -1.01846587	      0.88663157	     -0.45637536	     14.37176520	      2.04468288	     -1.51601106	    -12.19684988	      9.02629319	     -1.32334343	     11.65020519	     -6.07010570	     -1.55112922	    -14.68050385	     15.56965144	     -0.25053015	      0.50344301	      2.97003094	      9.34357747
